<?xml version="1.0" encoding="UTF-8"?>
<svg width="1600" height="900" viewBox="0 0 1600 900" fill="none" xmlns="http://www.w3.org/2000/svg">
  <defs>
    <linearGradient id="bg" x1="140" y1="80" x2="1420" y2="820" gradientUnits="userSpaceOnUse">
      <stop stop-color="#07111E"/>
      <stop offset="1" stop-color="#131A27"/>
    </linearGradient>
    <linearGradient id="video" x1="420" y1="182" x2="1160" y2="688" gradientUnits="userSpaceOnUse">
      <stop stop-color="#D34B6A"/>
      <stop offset="0.45" stop-color="#E18831"/>
      <stop offset="1" stop-color="#165CB4"/>
    </linearGradient>
    <linearGradient id="badge" x1="0" y1="0" x2="300" y2="0" gradientUnits="userSpaceOnUse">
      <stop stop-color="#F16285"/>
      <stop offset="1" stop-color="#F7983D"/>
    </linearGradient>
    <filter id="shadow" x="160" y="52" width="1280" height="796" filterUnits="userSpaceOnUse" color-interpolation-filters="sRGB">
      <feDropShadow dx="0" dy="22" stdDeviation="28" flood-color="#03070D" flood-opacity="0.42"/>
    </filter>
  </defs>
  <rect width="1600" height="900" fill="url(#bg)"/>
  <circle cx="1320" cy="110" r="220" fill="#FFB470" fill-opacity="0.08"/>
  <circle cx="240" cy="810" r="260" fill="#F15D83" fill-opacity="0.08"/>
  <g filter="url(#shadow)">
    <rect x="182" y="84" width="1236" height="732" rx="26" fill="#0D1118"/>
    <rect x="182" y="84" width="1236" height="52" rx="26" fill="#141B25"/>
    <rect x="182" y="110" width="1236" height="706" rx="0" fill="#0D1118"/>
    <circle cx="216" cy="110" r="7" fill="#EC6A5F"/>
    <circle cx="238" cy="110" r="7" fill="#F5BF4F"/>
    <circle cx="260" cy="110" r="7" fill="#62C655"/>
    <rect x="206" y="152" width="84" height="638" fill="#121924"/>
    <rect x="308" y="152" width="114" height="42" rx="14" fill="#1A2130"/>
    <circle cx="332" cy="173" r="11" fill="#F16285"/>
    <path d="M328 167.5L338 173L328 178.5V167.5Z" fill="#0D1118"/>
    <text x="352" y="179" fill="#E6E9EF" font-family="Helvetica Neue, Arial, sans-serif" font-size="22" font-weight="700">aurora-sample.webm</text>
    <rect x="308" y="216" width="1086" height="548" rx="22" fill="#06080D"/>
    <rect x="338" y="182" width="210" height="42" rx="21" fill="url(#badge)"/>
    <text x="366" y="209" fill="#090B10" font-family="Helvetica Neue, Arial, sans-serif" font-size="19" font-weight="800">Direct playback first</text>
    <rect x="342" y="246" width="1018" height="430" rx="18" fill="url(#video)"/>
    <circle cx="1062" cy="354" r="118" fill="#FFD8A8" fill-opacity="0.42"/>
    <circle cx="1170" cy="526" r="92" fill="#FFFFFF" fill-opacity="0.18"/>
    <circle cx="570" cy="414" r="164" fill="#170E2E" fill-opacity="0.42"/>
    <path d="M530 372C578 350 640 358 672 406C706 456 698 524 654 566C610 608 540 608 490 572C440 536 420 454 450 408C468 380 498 372 530 372Z" fill="#0B0E17" fill-opacity="0.38"/>
    <circle cx="852" cy="468" r="60" fill="#F2F4F8" fill-opacity="0.88"/>
    <path d="M832 435L896 468L832 501V435Z" fill="#D1476C"/>
    <rect x="342" y="696" width="1018" height="52" rx="14" fill="#111723"/>
    <rect x="388" y="720" width="498" height="8" rx="4" fill="#253144"/>
    <rect x="388" y="720" width="232" height="8" rx="4" fill="#F06A84"/>
    <circle cx="620" cy="724" r="10" fill="#FFD3A4"/>
    <circle cx="360" cy="722" r="12" fill="#F5F7FB"/>
    <path d="M355 715L369 722L355 729V715Z" fill="#131823"/>
    <text x="918" y="728" fill="#C7CDD8" font-family="Helvetica Neue, Arial, sans-serif" font-size="18" font-weight="600">Works outside the workspace</text>
    <rect x="970" y="174" width="352" height="46" rx="23" fill="#1B2433"/>
    <text x="995" y="203" fill="#E8ECF3" font-family="Helvetica Neue, Arial, sans-serif" font-size="19" font-weight="700">Fallback only when WebM fails</text>
  </g>
  <text x="182" y="56" fill="#F7F9FC" font-family="Helvetica Neue, Arial, sans-serif" font-size="56" font-weight="800">WebM Preview</text>
  <text x="182" y="812" fill="#D1D7E2" font-family="Helvetica Neue, Arial, sans-serif" font-size="26" font-weight="500">Focused VS Code preview for .webm files, with direct playback first</text>
  <text x="182" y="848" fill="#D1D7E2" font-family="Helvetica Neue, Arial, sans-serif" font-size="26" font-weight="500">and a local compatibility fallback only when needed.</text>
</svg>